<?xml version="1.0" encoding="utf-8"?>
<!-- Generator: Adobe Illustrator 24.2.0, SVG Export Plug-In . SVG Version: 6.00 Build 0)  -->
<!DOCTYPE svg PUBLIC "-//W3C//DTD SVG 1.1//EN" "http://www.w3.org/Graphics/SVG/1.1/DTD/svg11.dtd" [
	<!ENTITY ns_extend "http://ns.adobe.com/Extensibility/1.0/">
	<!ENTITY ns_ai "http://ns.adobe.com/AdobeIllustrator/10.0/">
	<!ENTITY ns_graphs "http://ns.adobe.com/Graphs/1.0/">
	<!ENTITY ns_vars "http://ns.adobe.com/Variables/1.0/">
	<!ENTITY ns_imrep "http://ns.adobe.com/ImageReplacement/1.0/">
	<!ENTITY ns_sfw "http://ns.adobe.com/SaveForWeb/1.0/">
	<!ENTITY ns_custom "http://ns.adobe.com/GenericCustomNamespace/1.0/">
	<!ENTITY ns_adobe_xpath "http://ns.adobe.com/XPath/1.0/">
]>
<svg version="1.1" xmlns:x="&ns_extend;" xmlns:i="&ns_ai;" xmlns:graph="&ns_graphs;"
	 xmlns="http://www.w3.org/2000/svg" xmlns:xlink="http://www.w3.org/1999/xlink" x="0px" y="0px" width="750px" height="750px"
	 viewBox="0 0 750 750" enable-background="new 0 0 750 750" xml:space="preserve">
<metadata>
	<sfw  xmlns="&ns_sfw;">
		<slices></slices>
		<sliceSourceBounds  bottomLeftOrigin="true" height="11750" width="13430.07" x="-5965.911" y="-3726"></sliceSourceBounds>
	</sfw>
</metadata>
<g id="FILL-BACKGROUND">
	<rect fill="#FFFFFF" width="750" height="750"/>
</g>
<g id="N-TEXT">
</g>
<g id="AG-DIAGRAM">
	<g id="POLYLINE_1943_">
		<g>
			<g>
				
					<line fill="none" stroke="#FF6B6B" stroke-width="3.25" stroke-linecap="round" stroke-linejoin="round" x1="188.355" y1="567.288" x2="190.355" y2="567.288"/>
				
					<line fill="none" stroke="#FF6B6B" stroke-width="3.25" stroke-linecap="round" stroke-linejoin="round" stroke-dasharray="4.0771,7.1349" x1="197.49" y1="567.288" x2="474.222" y2="567.288"/>
				
					<line fill="none" stroke="#FF6B6B" stroke-width="3.25" stroke-linecap="round" stroke-linejoin="round" x1="477.789" y1="567.288" x2="479.789" y2="567.288"/>
			</g>
		</g>
	</g>
</g>
<g id="AG-PEOPLE">
	<g id="POLYLINE_1562_">
		
			<path fill="none" stroke="#FF6B6B" stroke-width="2.75" stroke-linecap="round" stroke-linejoin="round" stroke-miterlimit="10" d="
			M416.466,264.275l-1.312,0.144c-1.585,0.168-3.336,0.182-4.788-0.53c-1.214-0.581-2.106-1.544-2.867-2.545
			c-0.872-1.168-1.581-2.465-2.189-3.788c-0.975-2.149-1.727-4.434-2.201-6.746c-0.291-1.467-0.478-2.987-0.281-4.478
			c0.112-0.895,0.427-1.865,0.861-2.618c0.493-0.87,1.114-1.564,1.855-2.211c1.876-1.607,4.621-2.825,7.056-2.043
			c1.832,0.64,3.007,2.224,3.965,3.764c1.341,2.228,2.239,4.751,2.953,7.244c0.058,0.187,0.157,0.467,0.225,0.622
			c0.042,0.094,0.064,0.14,0.064,0.14c0.045,0.091,0.068,0.135,0.068,0.135c0.049,0.088,0.074,0.131,0.074,0.131
			c0.053,0.085,0.066,0.106,0.066,0.106c0.057,0.083,0.071,0.104,0.071,0.104c0.061,0.081,0.077,0.102,0.077,0.102
			c0.066,0.08,0.083,0.1,0.083,0.1c0.071,0.079,0.089,0.098,0.089,0.098c0.057,0.058,0.096,0.097,0.096,0.097
			c0.083,0.077,0.126,0.115,0.126,0.115c0.909,0.75,1.947,1.17,3.035,1.509c1.286,0.374,2.805,0.579,4.058,0.112
			c0.081-0.032,0.108-0.043,0.108-0.043c0.08-0.035,0.106-0.047,0.106-0.047c0.078-0.038,0.104-0.051,0.104-0.051
			c0.076-0.04,0.102-0.054,0.102-0.054c0.075-0.043,0.099-0.058,0.099-0.058c0.073-0.046,0.097-0.062,0.097-0.062
			c0.094-0.066,0.124-0.088,0.124-0.088c0.089-0.07,0.118-0.094,0.118-0.094c0.086-0.075,0.114-0.101,0.114-0.101
			c0.082-0.08,0.109-0.107,0.109-0.107c0.079-0.084,0.105-0.113,0.105-0.113c0.076-0.089,0.101-0.119,0.101-0.119
			c0.915-1.202,1.175-2.59,1.487-3.988c0.633-3.08,0.931-6.911,3.124-9.323c1.559-1.796,4.027-3.151,5.984-4.461
			c1.276-0.851,2.611-1.891,3.589-3.054c2.121-2.515,3.392-5.897,4.749-8.864c0.958-2.056,2.056-4.426,3.95-5.721
			c0.614-0.419,1.251-0.693,1.888-0.809c0.09-0.015,0.134-0.022,0.134-0.022c0.089-0.012,0.134-0.017,0.134-0.017
			c0.089-0.008,0.133-0.012,0.133-0.012c0.088-0.005,0.132-0.007,0.132-0.007c0.088-0.002,0.131-0.002,0.131-0.002
			c0.087,0.002,0.13,0.003,0.13,0.003c0.086,0.005,0.129,0.009,0.129,0.009c0.086,0.009,0.128,0.014,0.128,0.014
			c0.085,0.012,0.127,0.019,0.127,0.019c0.084,0.015,0.125,0.024,0.125,0.024c0.083,0.019,0.124,0.029,0.124,0.029
			c0.082,0.022,0.122,0.035,0.122,0.035c0.081,0.026,0.121,0.04,0.121,0.04c0.08,0.03,0.119,0.045,0.119,0.045
			c0.078,0.033,0.117,0.051,0.117,0.051c0.077,0.037,0.115,0.056,0.115,0.056c0.076,0.04,0.113,0.061,0.113,0.061
			c0.074,0.044,0.111,0.067,0.111,0.067c0.073,0.048,0.109,0.072,0.109,0.072c0.088,0.064,0.114,0.083,0.114,0.083
			c0.077,0.061,0.102,0.082,0.102,0.082c0.075,0.065,0.1,0.087,0.1,0.087c0.073,0.069,0.098,0.092,0.098,0.092
			c0.072,0.072,0.096,0.097,0.096,0.097c0.872,0.96,1.265,2.075,1.634,3.254c0.5,1.703,0.775,3.514,1,5.274
			c0.488,4.51,1.052,9.164,0.533,13.692c-0.144,1.164-0.385,2.328-0.751,3.442c-0.534,1.673-1.474,3.555-2.028,5.222
			c-0.355,1.056-0.551,2.178-0.452,3.293c0.062,0.81,0.244,1.616,0.475,2.394c0.801,2.576,2.169,5.431,3.017,7.989
			c0.446,1.32,0.846,2.685,1.04,4.067c0.182,1.246,0.156,2.677-0.359,3.794c-0.061,0.135-0.114,0.233-0.149,0.298
			c-0.054,0.094-0.073,0.125-0.073,0.125c-0.057,0.091-0.077,0.121-0.077,0.121c-0.06,0.088-0.08,0.117-0.08,0.117
			c-0.063,0.084-0.084,0.112-0.084,0.112c-0.066,0.081-0.088,0.107-0.088,0.107c-0.068,0.077-0.092,0.102-0.092,0.102
			c-0.071,0.073-0.095,0.097-0.095,0.097c-0.074,0.07-0.099,0.092-0.099,0.092c-0.077,0.066-0.103,0.087-0.103,0.087
			c-0.079,0.062-0.106,0.082-0.106,0.082c-0.082,0.058-0.11,0.076-0.11,0.076c-0.085,0.053-0.113,0.071-0.113,0.071
			c-0.087,0.049-0.117,0.065-0.117,0.065c-0.09,0.045-0.12,0.059-0.12,0.059c-0.092,0.04-0.124,0.053-0.124,0.053
			c-0.095,0.036-0.127,0.047-0.127,0.047c-0.065,0.021-0.097,0.031-0.097,0.031c-0.066,0.019-0.099,0.028-0.099,0.028
			c-0.069,0.017-0.104,0.025-0.104,0.025c-0.581,0.121-1.11,0.086-1.63,0.05c-0.724-0.058-1.8-0.212-2.487-0.096
			c-0.068,0.011-0.101,0.018-0.101,0.018c-0.066,0.014-0.099,0.021-0.099,0.021c-0.064,0.016-0.096,0.025-0.096,0.025
			c-0.094,0.029-0.124,0.04-0.124,0.04c-0.09,0.035-0.105,0.041-0.105,0.041c-0.087,0.04-0.101,0.047-0.101,0.047
			c-0.094,0.052-0.117,0.065-0.117,0.065c-0.089,0.059-0.111,0.074-0.111,0.074c-0.085,0.065-0.105,0.083-0.105,0.083
			c-0.08,0.072-0.099,0.09-0.099,0.09c-0.076,0.078-0.094,0.098-0.094,0.098c-0.071,0.083-0.088,0.105-0.088,0.105
			c-0.067,0.088-0.083,0.111-0.083,0.111c-0.062,0.093-0.077,0.117-0.077,0.117c-0.044,0.073-0.058,0.097-0.058,0.097
			c-0.041,0.075-0.055,0.1-0.055,0.1c-0.553,1.091-0.525,2.218-0.345,3.338c0.008,0.087,0.01,0.115,0.01,0.115
			c0.004,0.083,0.005,0.111,0.005,0.111c0,0.08-0.001,0.106-0.001,0.106c-0.007,0.09-0.008,0.102-0.008,0.102
			c-0.014,0.086-0.016,0.098-0.016,0.098c-0.026,0.095-0.029,0.106-0.029,0.106c-0.037,0.09-0.043,0.102-0.043,0.102
			c-0.052,0.088-0.06,0.1-0.06,0.1c-0.071,0.09-0.081,0.101-0.081,0.101c-0.086,0.087-0.109,0.108-0.109,0.108
			c-0.073,0.063-0.099,0.084-0.099,0.084c-0.217,0.173-0.58,0.41-0.741,0.534c-0.091,0.07-0.121,0.094-0.121,0.094
			c-0.088,0.074-0.116,0.099-0.116,0.099c-0.083,0.078-0.11,0.104-0.11,0.104c-0.078,0.082-0.09,0.096-0.09,0.096
			c-0.072,0.087-0.083,0.102-0.083,0.102c-0.064,0.092-0.075,0.107-0.075,0.107c-0.051,0.087-0.061,0.106-0.061,0.106
			c-0.039,0.08-0.048,0.101-0.048,0.101c-0.034,0.084-0.042,0.105-0.042,0.105c-0.029,0.087-0.036,0.109-0.036,0.109
			c-0.025,0.09-0.03,0.113-0.03,0.113c-0.016,0.069-0.025,0.116-0.025,0.116c-0.144,0.777-0.028,1.592-0.176,2.346
			c-0.015,0.072-0.021,0.095-0.021,0.095c-0.024,0.093-0.03,0.117-0.03,0.117c-0.028,0.092-0.036,0.114-0.036,0.114
			c-0.032,0.089-0.049,0.133-0.049,0.133c-0.036,0.087-0.056,0.13-0.056,0.13c-0.04,0.085-0.061,0.127-0.061,0.127
			c-0.243,0.469-0.613,0.95-0.826,1.328c-0.21,0.367-0.334,0.666-0.426,1.01c-0.286,1.158-0.147,2.725-0.161,3.91
			c-0.006,1.26-0.092,2.689-0.766,3.768c-0.059,0.093-0.09,0.14-0.09,0.14c-0.063,0.091-0.095,0.136-0.095,0.136
			c-0.066,0.088-0.1,0.132-0.1,0.132c-0.07,0.086-0.106,0.128-0.106,0.128c-0.073,0.083-0.111,0.124-0.111,0.124
			c-0.077,0.081-0.116,0.121-0.116,0.121c-0.08,0.078-0.121,0.117-0.121,0.117c-0.084,0.076-0.126,0.113-0.126,0.113
			c-0.087,0.073-0.131,0.109-0.131,0.109c-0.09,0.07-0.136,0.105-0.136,0.105c-1.104,0.804-2.347,1.11-3.653,1.224
			c-2.831,0.202-5.626-0.639-8.279-1.54c-3.869-1.313-8.492-3.639-12.325-5.09c-0.853-0.302-1.833-0.555-2.685-0.505
			c-0.934,0.047-1.698,0.382-2.446,0.811c-2.215,1.301-4.768,3.821-6.78,5.426c-1.964,1.611-4.161,3.048-6.347,4.34l-3.575,2.057"/>
	</g>
	<g id="POLYLINE_1561_">
		
			<path fill="none" stroke="#FF6B6B" stroke-width="2.75" stroke-linecap="round" stroke-linejoin="round" stroke-miterlimit="10" d="
			M370.725,219.781c-1.979,0.925-4.092,1.725-6.301,1.772c-3.017,0.089-5.872-1.279-8.262-3.02
			c-3.717-2.755-6.793-6.854-7.207-11.576c-0.523-6.201,2.897-12.345,7.782-16.008c4.613-3.433,11.095-5.13,16.522-2.688
			c1.964,0.887,3.615,2.359,4.938,4.043c1.728,2.205,2.984,4.77,3.846,7.428c0.593,1.855,1.005,3.794,1.12,5.741
			c0.077,1.376-0.002,2.782-0.399,4.107c-0.292,0.983-0.763,1.916-1.374,2.739c-0.692,0.937-1.548,1.735-2.444,2.458
			C376.443,216.785,373.628,218.428,370.725,219.781z"/>
	</g>
	<g id="POLYLINE_1560_">
		
			<path fill="none" stroke="#FF6B6B" stroke-width="2.75" stroke-linecap="round" stroke-linejoin="round" stroke-miterlimit="10" d="
			M403.117,250.847c-1.708,1.3-3.988,2.925-5.471,4.452c-1.371,1.335-2.676,3.329-3.797,4.889c-0.911,1.246-1.924,2.484-3.183,3.392
			c-0.992,0.718-1.992,1.121-3.136,1.399c-2.204,0.515-4.512,0.432-6.751,0.221c-4.005-0.429-8.158-1.295-12.095-2.144
			c-3.418-0.796-6.879-1.764-9.948-3.508c-2.396-1.357-4.504-3.324-5.55-5.915c-0.785-1.891-1.083-3.958-1.094-5.997
			c-0.005-2.876,0.543-5.754,1.479-8.469c1.112-3.246,2.878-6.291,5.314-8.722c2.201-2.269,5.165-4.337,7.572-6.384
			c1.533-1.292,2.997-2.726,4.268-4.279"/>
	</g>
	<g id="POLYLINE_1559_">
		
			<path fill="none" stroke="#FF6B6B" stroke-width="2.75" stroke-linecap="round" stroke-linejoin="round" stroke-miterlimit="10" d="
			M382.843,202.883c1.642-1.928,3.467-3.746,5.468-5.301c3.049-2.382,6.483-4.28,10.069-5.72c5.545-2.208,11.529-3.429,17.506-3.324
			c7.162,0.089,14.188,2.452,20.857,4.884c4.289,1.568,8.761,3.155,12.587,5.688c2.059,1.365,3.937,3.064,5.309,5.13
			c1.503,2.248,2.469,4.828,3.069,7.455c0.746,3.293,0.947,6.72,0.752,10.086"/>
	</g>
	<g id="POLYLINE_1558_">
		
			<path fill="none" stroke="#FF6B6B" stroke-width="2.75" stroke-linecap="round" stroke-linejoin="round" stroke-miterlimit="10" d="
			M504.432,328.434c-1.06,0.415-2.258,0.828-3.399,0.761c-0.093-0.007-0.14-0.011-0.14-0.011c-0.092-0.01-0.138-0.016-0.138-0.016
			c-0.091-0.013-0.137-0.021-0.137-0.021c-0.09-0.017-0.135-0.026-0.135-0.026c-0.089-0.02-0.134-0.031-0.134-0.031
			c-0.088-0.024-0.132-0.036-0.132-0.036c-0.087-0.027-0.131-0.042-0.131-0.042c-0.087-0.031-0.13-0.047-0.13-0.047
			c-0.086-0.034-0.129-0.052-0.129-0.052c-0.085-0.038-0.128-0.058-0.128-0.058c-0.085-0.041-0.127-0.063-0.127-0.063
			c-0.084-0.045-0.127-0.069-0.127-0.069c-0.963-0.563-1.585-1.322-2.212-2.132c-0.804-1.074-1.499-2.254-2.136-3.433
			c-2.888-5.506-5.024-11.494-6.746-17.461c-0.658-2.401-1.28-4.887-1.483-7.373c-0.118-1.594-0.076-3.433,0.762-4.815
			c0.846-1.349,2.159-2.037,3.456-2.778c13.578-7.029,28.533-13.959,42.656-19.805c2.398-0.97,7.248-2.858,9.668-3.756l21.021-7.544
			c10.079-3.68,20.829-8.959,31.255-11.554c8.518-2.17,18.536-3.366,27.284-4.49c0.875-0.083,1.889-0.127,2.723,0.108
			c0.087,0.026,0.13,0.039,0.13,0.039c0.085,0.029,0.127,0.044,0.127,0.044c0.083,0.032,0.125,0.048,0.125,0.048
			c0.082,0.035,0.122,0.053,0.122,0.053c0.08,0.038,0.119,0.058,0.119,0.058c0.078,0.041,0.116,0.063,0.116,0.063
			c0.076,0.045,0.114,0.068,0.114,0.068c0.074,0.048,0.111,0.073,0.111,0.073c0.073,0.052,0.108,0.079,0.108,0.079
			c0.071,0.056,0.106,0.084,0.106,0.084c0.069,0.059,0.103,0.09,0.103,0.09c0.067,0.063,0.101,0.096,0.101,0.096
			c0.066,0.067,0.098,0.102,0.098,0.102c0.07,0.078,0.107,0.121,0.107,0.121c0.073,0.09,0.109,0.136,0.109,0.136
			c0.538,0.716,0.799,1.432,1.052,2.241c0.251,0.857,0.407,1.749,0.494,2.638c0.165,1.91,0.113,3.957-0.623,5.753
			c-0.519,1.272-1.49,2.342-2.471,3.161c-0.972,0.82-2.078,1.573-3.14,2.273c-3.833,2.495-8.355,4.914-12.409,7.059
			c-5.16,2.716-14.109,7.01-19.248,9.717c-1.837,0.981-3.757,2.077-5.505,3.211c-2.779,1.809-5.441,3.899-7.547,6.477
			c-4.649,5.605-5.505,13.53-6.961,20.423c-1.175,5.584-3.433,14.366-9.764,15.895c-1.642,0.381-3.361,0.205-4.993-0.142
			c-2.875-0.632-5.652-1.828-8.322-3.046c-2.654-1.223-6.727-3.328-9.428-4.297c-1.474-0.531-3.027-0.907-4.6-0.923
			c-1.962-0.03-3.893,0.482-5.721,1.16c-5.489,2.062-13.261,6.694-18.505,9.463C508.017,326.785,506.189,327.732,504.432,328.434z"
			/>
	</g>
	<g id="POLYLINE_1412_">
		
			<path fill="none" stroke="#FF6B6B" stroke-width="2.75" stroke-linecap="round" stroke-linejoin="round" stroke-miterlimit="10" d="
			M203.899,403.004c3.796-6.781,7.845-14.087,12.641-20.155c3.173-4.046,6.79-7.778,10.764-11.04
			c5.171-4.257,11.023-7.843,16.882-11.074c5.739-3.156,12.186-6.227,18.171-8.933c11.027-4.959,46.923-19.626,58.263-24.323
			c9.474-3.739,19.335-7.274,29.572-7.958c6.855-0.512,15.193,0.544,22.066,1.181c4.127,0.375,8.4,0.659,12.54,0.42
			c3.588-0.202,7.184-0.834,10.67-1.698c3.424-0.846,7.058-2.019,10.399-3.163c6.08-2.149,18.756-6.731,24.855-8.49
			c8.349-2.607,33.28-9.213,41.696-11.867c2.754-0.846,5.902-2.113,8.582-3.078c0.859-0.293,1.763-0.569,2.669-0.675
			c1.558-0.19,3.015,0.219,4.477,0.67"/>
	</g>
	<g id="POLYLINE_1411_">
		
			<path fill="none" stroke="#FF6B6B" stroke-width="2.75" stroke-linecap="round" stroke-linejoin="round" stroke-miterlimit="10" d="
			M503.027,328.922l-0.527,0.879c-0.915,1.531-2.232,2.544-3.634,3.527c-1.853,1.281-4.064,2.572-6.03,3.701
			c-10.86,6.131-28.134,15.145-39.218,20.883c-6.821,3.433-16.243,8.421-23.094,11.344c-2.968,1.255-6.062,2.342-9.181,3.153
			c-7.38,1.893-15.142,2.657-22.732,3.16c-4.157,0.254-8.634,0.387-12.796,0.371c-3.806-0.013-8.87-0.277-12.689-0.303
			c-2.911-0.003-5.862,0.179-8.712,0.789c-2.9,0.613-5.718,1.655-8.399,2.912c-8.524,4.059-16.015,10.122-23.052,16.345
			c-12.329,11.099-27.154,26.137-40.063,36.434c-9.526,7.708-19.736,14.806-30.212,21.159c-9.207,5.559-18.86,10.711-28.763,14.917
			c-6.259,2.616-12.78,5.029-19.449,6.349c-6.418,1.284-13.211,1.345-19.458-0.781c-7.945-2.691-14.662-8.257-20.144-14.483
			c-7.252-8.351-12.688-18.576-14.16-29.626c-0.947-6.867-0.437-13.925,1.361-20.615c1.431-5.378,3.758-10.55,6.282-15.497
			c3.392-6.409,7.347-13.764,10.074-20.435c0.841-1.978,1.897-4.74,2.686-6.75c0.212-0.521,0.53-1.192,0.807-1.635
			c0.528-0.88,1.267-1.572,2.107-1.985c1.506-0.722,3.064-0.885,4.686-0.984c4.713-0.18,9.449,0.634,14.025,1.697
			c0,0,11.201,2.878,11.201,2.878c0.993,0.276,14.391,3.229,15.81,3.55"/>
	</g>
	<g id="POLYLINE_1410_">
		
			<path fill="none" stroke="#FF6B6B" stroke-width="2.75" stroke-linecap="round" stroke-linejoin="round" stroke-miterlimit="10" d="
			M188.077,361.794c7.281-11.965,15.756-23.409,25.436-33.544c12.114-12.709,25.676-24.373,40.327-34.066"/>
	</g>
	<g id="POLYLINE_1409_">
		
			<path fill="none" stroke="#FF6B6B" stroke-width="2.75" stroke-linecap="round" stroke-linejoin="round" stroke-miterlimit="10" d="
			M274.043,346.732c-6.512-11.8-11.631-24.604-16.256-37.247c-1.302-3.688-2.629-7.534-3.465-11.356
			c-0.222-1.055-0.411-2.14-0.47-3.218c-0.056-0.947,0.03-1.997,0.462-2.793c0.051-0.094,0.068-0.125,0.068-0.125
			c0.596-1.013,1.451-1.643,2.32-2.357c4.936-3.792,10.579-7.218,15.888-10.471c3.714-2.211,7.73-4.65,11.645-6.465
			c2.152-0.989,4.405-1.862,6.731-2.333c1.669-0.34,3.401-0.452,5.092-0.221c2.379,0.311,4.656,1.196,6.835,2.168
			c0,0,3.996,1.837,3.996,1.837c2.949,1.334,6.076,2.343,9.268,2.893c5.044,0.89,10.282,0.805,15.385,0.61
			c8.218-0.388,23.313-1.507,31.326-1.208c8.018,0.211,16.203,1.596,23.34,5.407c4.368,2.355,8.459,5.471,11.361,9.537
			c0.869,1.234,1.589,2.587,2.106,4.006c0.565,1.536,0.903,3.165,1.143,4.781"/>
	</g>
	<g id="POLYLINE_1408_">
		
			<path fill="none" stroke="#FF6B6B" stroke-width="2.75" stroke-linecap="round" stroke-linejoin="round" stroke-miterlimit="10" d="
			M331.23,323.567c-4.293-5.462-6.82-12.367-6.69-19.341c0.078-4.414,1.219-9.052,4.262-12.379c1.99-2.166,4.646-3.559,7.394-4.513
			c3.968-1.358,8.197-1.904,12.365-2.208c7.654-0.506,15.414-0.247,23.011,0.82c6.194,0.905,12.428,2.323,18.125,4.974
			c4.641,2.17,9.01,5.387,11.52,9.945c2.66,4.839,3.31,10.555,2.88,15.995"/>
	</g>
	<g id="POLYLINE_1407_">
		
			<path fill="none" stroke="#FF6B6B" stroke-width="2.75" stroke-linecap="round" stroke-linejoin="round" stroke-miterlimit="10" d="
			M296.862,270.274c6.317-1.457,13.881-3.259,20.273-3.906c8.26-0.948,21.759-1.203,30.203-1.576
			c3.844-0.219,7.924-0.339,11.703-1.084c0.777-0.169,1.557-0.403,2.281-0.734c0.804-0.362,1.622-0.892,2.421-1.264"/>
	</g>
	<g id="POLYLINE_1406_">
		
			<path fill="none" stroke="#FF6B6B" stroke-width="2.75" stroke-linecap="round" stroke-linejoin="round" stroke-miterlimit="10" d="
			M309.87,417.298c-5.951,14.234-11.115,29.115-14.424,44.199c-1.05,4.662-1.987,10.528-2.717,15.301
			c-2.951,19.215-5.179,40.299-6.584,59.703c-0.203,3.32-0.502,7.697-0.558,11.001c-0.016,1.626-0.056,3.367,0.109,4.982
			c0.248,2.511,1.009,4.985,2.309,7.153c1.341,2.22,3.16,4.2,5.403,5.527c1.683,1.001,3.582,1.622,5.515,1.91
			c0.767,0.115,1.56,0.182,2.336,0.205c13.056,0.03,37.975,0.008,51.132,0.002c2.672-0.043,5.519-0.111,8.17-0.454
			c1.231-0.174,2.582-0.375,3.687-0.927c0.074-0.04,0.097-0.054,0.097-0.054c0.091-0.055,0.113-0.069,0.113-0.069
			c0.084-0.056,0.103-0.07,0.103-0.07c0.094-0.072,0.112-0.087,0.112-0.087c0.082-0.074,0.098-0.089,0.098-0.089
			c0.084-0.091,0.097-0.107,0.097-0.107c0.068-0.094,0.078-0.11,0.078-0.11c0.044-0.08,0.052-0.097,0.052-0.097
			c0.531-1.237,0.347-2.643,0.022-3.827c-0.235-0.818-0.568-1.734-1.001-2.451c-0.928-1.485-2.35-2.506-3.851-3.343
			c-1.836-0.994-3.825-1.744-5.843-2.274c-3.778-0.967-7.729-1.26-11.618-1.323c-3.102-0.04-6.385,0.151-9.487,0.104
			c-3.413-0.043-6.925-0.214-10.295-0.766c-2.721-0.465-5.447-1.214-8.065-2.083c-1.265-0.431-2.618-0.951-3.837-1.5
			c-0.588-0.27-1.317-0.591-1.834-0.931c-2.086-1.33-2.858-3.789-2.942-6.094c-0.069-1.527,0.106-3.069,0.372-4.571
			c0.386-2.201,1.01-4.536,1.604-6.694c0.992-3.619,2.436-7.905,3.63-11.483c4.544-13.176,11.721-31.982,16.783-45.004
			c0,0,11.956-30.322,11.956-30.322s0.419-1.048,0.419-1.048s0.461-1.116,0.461-1.116c1.058-2.551,2.487-5.615,3.651-8.11
			c8.413-17.789,20.352-39.314,29.792-56.723"/>
	</g>
</g>
<g id="AG-OUTLINE">
	<g id="POLYLINE_1576_">
		
			<path fill="none" stroke="#FF6B6B" stroke-width="3.5" stroke-linecap="round" stroke-linejoin="round" stroke-miterlimit="10" d="
			M374.913,375.658c-9.526,17.501-21.321,38.916-29.792,56.723c-1.179,2.481-2.593,5.605-3.651,8.11c0,0-0.461,1.116-0.461,1.116
			s-0.419,1.048-0.419,1.048s-11.956,30.323-11.956,30.323c-5.064,13.052-12.232,31.811-16.783,45.004
			c-1.377,4.145-2.951,8.825-4.054,13.031c-0.802,3.163-1.677,6.429-1.552,9.717c0.047,1.209,0.299,2.549,0.8,3.601
			c0.496,1.091,1.316,1.987,2.271,2.574c1.753,0.978,3.657,1.686,5.543,2.349c2.619,0.869,5.344,1.618,8.065,2.083
			c3.37,0.552,6.883,0.724,10.295,0.767c3.102,0.047,6.385-0.144,9.487-0.104c3.889,0.063,7.84,0.356,11.618,1.323
			c2.018,0.53,4.007,1.279,5.843,2.274c1.448,0.8,2.882,1.84,3.787,3.241c0.502,0.793,0.764,1.587,1.038,2.458
			c0.377,1.288,0.507,2.66,0.032,3.857c-0.035,0.082-0.043,0.098-0.043,0.098c-0.046,0.08-0.057,0.096-0.057,0.096
			c-0.07,0.094-0.083,0.109-0.083,0.109c-0.086,0.091-0.102,0.106-0.102,0.106c-0.084,0.074-0.102,0.088-0.102,0.088
			c-0.076,0.058-0.096,0.072-0.096,0.072c-0.084,0.056-0.105,0.07-0.105,0.07c-0.091,0.055-0.115,0.069-0.115,0.069
			c-0.53,0.281-1.021,0.433-1.547,0.566c-0.711,0.182-1.484,0.302-2.213,0.401c-2.651,0.343-5.494,0.414-8.171,0.454
			c-13.095,0-37.932,0.023-50.911,0.004c-0.78-0.016-1.578-0.074-2.351-0.181c-2.005-0.274-3.977-0.902-5.72-1.939
			c-2.243-1.327-4.061-3.307-5.403-5.527c-1.37-2.282-2.138-4.902-2.345-7.55c-0.292-5.007,0.201-10.57,0.486-15.586
			c1.407-19.406,3.633-40.484,6.584-59.703c0.728-4.721,1.661-10.651,2.717-15.301c3.308-15.082,8.473-29.968,14.423-44.199
			c-7.138,6.579-14.852,13.37-22.57,19.227c-11.703,8.913-24.213,16.983-37.192,23.909c-7.047,3.738-14.441,7.239-21.909,10.051
			c-4.801,1.788-9.792,3.386-14.845,4.268c-13.29,2.359-23.362-1.255-33.277-10.164c-4.538-4.113-8.475-8.914-11.69-14.124
			c-4.302-6.932-7.189-14.804-7.919-22.953c-0.583-6.184-0.001-12.476,1.608-18.471c1.433-5.379,3.757-10.549,6.282-15.497
			c3.389-6.409,7.349-13.764,10.074-20.435c0.88-2.057,1.933-4.864,2.769-6.947c0.27-0.642,0.655-1.399,1.041-1.909
			c1.371-1.89,3.689-2.264,5.836-2.458c7.281-11.965,15.756-23.409,25.436-33.544c12.114-12.709,25.676-24.373,40.327-34.066
			c0.017-0.757,0.154-1.46,0.473-2.065c0.051-0.094,0.068-0.125,0.068-0.125c0.684-1.143,1.702-1.848,2.699-2.653
			c5.721-4.291,12.159-8.159,18.293-11.836c3.962-2.312,8.099-4.743,12.437-6.262c2.887-1.01,6.016-1.57,9.053-0.968
			c6.317-1.457,13.881-3.259,20.273-3.906c8.26-0.948,21.759-1.203,30.203-1.576c3.844-0.219,7.924-0.339,11.703-1.084
			c0.777-0.169,1.557-0.403,2.281-0.734c0.804-0.362,1.622-0.892,2.421-1.264c-2.905-0.967-5.811-2.258-8.041-4.406
			c-1.271-1.218-2.239-2.747-2.795-4.41c-1.029-3.052-0.978-6.375-0.433-9.519c0.756-4.128,2.375-8.182,5.063-11.438
			c2.332-2.861,5.649-5.163,8.477-7.506c1.696-1.399,3.319-2.946,4.712-4.651c-1.713,0.797-3.515,1.509-5.407,1.712
			c-1.776,0.206-3.59-0.09-5.244-0.758c-2.274-0.911-4.328-2.344-6.084-4.042c-1.721-1.68-3.18-3.672-4.097-5.904
			c-0.978-2.345-1.208-4.963-0.811-7.463c0.677-4.271,2.975-8.216,6.145-11.127c2.461-2.249,5.504-3.881,8.752-4.642
			c2.049-0.477,4.198-0.598,6.274-0.227c1.906,0.336,3.742,1.114,5.275,2.3c2.012,1.559,3.47,3.55,4.672,5.754
			c1.254,2.343,2.152,4.887,2.642,7.499c1.642-1.928,3.467-3.746,5.468-5.301c3.049-2.382,6.483-4.28,10.069-5.72
			c5.545-2.208,11.529-3.429,17.506-3.324c7.162,0.089,14.188,2.452,20.857,4.884c4.289,1.568,8.761,3.155,12.587,5.688
			c2.059,1.365,3.937,3.064,5.309,5.13c1.503,2.248,2.469,4.828,3.069,7.455c0.746,3.293,0.947,6.72,0.752,10.086
			c0.686,2.875,0.946,6.024,1.224,8.968c0.261,3.191,0.449,6.464-0.022,9.643c-0.158,1.06-0.412,2.119-0.761,3.132
			c-0.524,1.562-1.42,3.387-1.938,4.952c-0.355,1.056-0.551,2.178-0.452,3.293c0.062,0.81,0.244,1.616,0.475,2.394
			c0.758,2.451,2.074,5.227,2.902,7.654c0.479,1.378,0.913,2.803,1.134,4.248c0.203,1.291,0.2,2.783-0.337,3.948
			c-0.061,0.135-0.114,0.233-0.149,0.298c-0.054,0.094-0.073,0.125-0.073,0.125c-0.057,0.091-0.077,0.121-0.077,0.121
			c-0.06,0.088-0.08,0.117-0.08,0.117c-0.063,0.084-0.084,0.112-0.084,0.112c-0.066,0.081-0.088,0.107-0.088,0.107
			c-0.068,0.077-0.092,0.102-0.092,0.102c-0.071,0.073-0.095,0.097-0.095,0.097c-0.074,0.07-0.099,0.092-0.099,0.092
			c-0.077,0.066-0.103,0.087-0.103,0.087c-0.079,0.062-0.106,0.082-0.106,0.082c-0.082,0.058-0.11,0.076-0.11,0.076
			c-0.085,0.053-0.113,0.071-0.113,0.071c-0.087,0.049-0.117,0.065-0.117,0.065c-0.09,0.045-0.12,0.059-0.12,0.059
			c-0.092,0.04-0.124,0.053-0.124,0.053c-0.095,0.036-0.127,0.047-0.127,0.047c-0.065,0.021-0.097,0.031-0.097,0.031
			c-0.066,0.019-0.099,0.028-0.099,0.028c-0.069,0.017-0.104,0.025-0.104,0.025c-0.581,0.121-1.11,0.086-1.63,0.05
			c-0.724-0.058-1.8-0.212-2.487-0.096c-0.068,0.011-0.101,0.018-0.101,0.018c-0.066,0.014-0.099,0.021-0.099,0.021
			c-0.064,0.016-0.096,0.025-0.096,0.025c-0.094,0.029-0.124,0.04-0.124,0.04c-0.09,0.035-0.105,0.041-0.105,0.041
			c-0.087,0.04-0.101,0.047-0.101,0.047c-0.094,0.052-0.117,0.065-0.117,0.065c-0.089,0.059-0.111,0.074-0.111,0.074
			c-0.085,0.065-0.105,0.083-0.105,0.083c-0.08,0.072-0.099,0.09-0.099,0.09c-0.076,0.078-0.094,0.098-0.094,0.098
			c-0.071,0.083-0.088,0.105-0.088,0.105c-0.067,0.088-0.083,0.111-0.083,0.111c-0.062,0.093-0.077,0.117-0.077,0.117
			c-0.044,0.073-0.058,0.097-0.058,0.097c-0.041,0.075-0.055,0.1-0.055,0.1c-0.553,1.091-0.525,2.218-0.345,3.338
			c0.008,0.087,0.01,0.115,0.01,0.115c0.004,0.083,0.005,0.111,0.005,0.111c0,0.08-0.001,0.106-0.001,0.106
			c-0.007,0.09-0.008,0.102-0.008,0.102c-0.014,0.086-0.016,0.098-0.016,0.098c-0.026,0.095-0.029,0.106-0.029,0.106
			c-0.037,0.09-0.043,0.102-0.043,0.102c-0.052,0.088-0.06,0.1-0.06,0.1c-0.071,0.09-0.081,0.101-0.081,0.101
			c-0.086,0.087-0.109,0.108-0.109,0.108c-0.073,0.063-0.099,0.084-0.099,0.084c-0.217,0.173-0.58,0.41-0.741,0.534
			c-0.091,0.07-0.121,0.094-0.121,0.094c-0.088,0.074-0.116,0.099-0.116,0.099c-0.083,0.078-0.11,0.104-0.11,0.104
			c-0.078,0.082-0.09,0.096-0.09,0.096c-0.072,0.087-0.083,0.102-0.083,0.102c-0.064,0.092-0.075,0.107-0.075,0.107
			c-0.051,0.087-0.061,0.106-0.061,0.106c-0.039,0.08-0.048,0.101-0.048,0.101c-0.034,0.084-0.042,0.105-0.042,0.105
			c-0.029,0.087-0.036,0.109-0.036,0.109c-0.025,0.09-0.03,0.113-0.03,0.113c-0.016,0.069-0.025,0.116-0.025,0.116
			c-0.144,0.777-0.028,1.592-0.176,2.346c-0.015,0.072-0.021,0.095-0.021,0.095c-0.024,0.093-0.03,0.117-0.03,0.117
			c-0.028,0.092-0.036,0.114-0.036,0.114c-0.032,0.089-0.049,0.133-0.049,0.133c-0.036,0.087-0.056,0.13-0.056,0.13
			c-0.04,0.085-0.061,0.127-0.061,0.127c-0.243,0.469-0.613,0.95-0.826,1.328c-0.21,0.367-0.334,0.666-0.426,1.01
			c-0.286,1.158-0.147,2.725-0.161,3.91c-0.006,1.26-0.092,2.689-0.766,3.768c-0.059,0.093-0.09,0.14-0.09,0.14
			c-0.063,0.091-0.095,0.136-0.095,0.136c-0.066,0.088-0.1,0.132-0.1,0.132c-0.07,0.086-0.106,0.128-0.106,0.128
			c-0.073,0.083-0.111,0.124-0.111,0.124c-0.077,0.081-0.116,0.121-0.116,0.121c-0.08,0.078-0.121,0.117-0.121,0.117
			c-0.084,0.076-0.126,0.113-0.126,0.113c-0.087,0.073-0.131,0.109-0.131,0.109c-0.09,0.07-0.136,0.105-0.136,0.105
			c-1.104,0.804-2.347,1.11-3.653,1.224c-2.831,0.202-5.626-0.639-8.279-1.54c-3.869-1.313-8.492-3.639-12.325-5.09
			c-0.853-0.302-1.833-0.555-2.685-0.505c-0.934,0.047-1.698,0.382-2.446,0.811c-2.215,1.301-4.768,3.821-6.78,5.426
			c-1.964,1.611-4.161,3.048-6.347,4.34l-3.575,2.057c3,4.962,3.73,10.987,3.281,16.684c3.56-1.181,16.357-5.822,19.901-6.966
			c3.724-1.242,9.892-3.075,13.72-4.194c3.629-1.041,31.918-8.801,34.698-9.798c2.584-0.788,6.024-2.155,8.582-3.078
			c0.865-0.295,1.759-0.568,2.669-0.675c1.55-0.188,3.021,0.217,4.477,0.67c0.086-0.093,0.13-0.14,0.13-0.14
			c0.859-0.868,1.853-1.412,2.896-1.995c13.553-7.006,28.478-13.927,42.571-19.759c2.398-0.97,7.248-2.858,9.668-3.756
			c0,0,21.021-7.544,21.021-7.544c10.079-3.68,20.829-8.959,31.255-11.554c8.518-2.17,18.536-3.366,27.284-4.49
			c0.875-0.083,1.889-0.127,2.723,0.108c0.087,0.026,0.13,0.039,0.13,0.039c0.085,0.029,0.127,0.044,0.127,0.044
			c0.083,0.032,0.125,0.048,0.125,0.048c0.082,0.035,0.122,0.053,0.122,0.053c0.08,0.038,0.119,0.058,0.119,0.058
			c0.078,0.041,0.116,0.063,0.116,0.063c0.076,0.045,0.114,0.068,0.114,0.068c0.074,0.048,0.111,0.073,0.111,0.073
			c0.073,0.052,0.108,0.079,0.108,0.079c0.071,0.056,0.106,0.084,0.106,0.084c0.069,0.059,0.103,0.09,0.103,0.09
			c0.067,0.063,0.101,0.096,0.101,0.096c0.066,0.067,0.098,0.102,0.098,0.102c0.07,0.078,0.107,0.121,0.107,0.121
			c0.073,0.09,0.109,0.136,0.109,0.136c0.538,0.716,0.799,1.432,1.052,2.241c0.251,0.857,0.407,1.749,0.494,2.638
			c0.165,1.91,0.113,3.957-0.623,5.753c-0.519,1.272-1.49,2.342-2.471,3.161c-0.972,0.82-2.078,1.573-3.14,2.273
			c-3.833,2.495-8.355,4.914-12.409,7.059c-5.16,2.716-14.109,7.01-19.248,9.717c-1.837,0.981-3.757,2.077-5.505,3.211
			c-2.779,1.809-5.441,3.899-7.547,6.477c-4.649,5.605-5.505,13.53-6.961,20.423c-1.175,5.584-3.433,14.366-9.764,15.895
			c-1.642,0.381-3.361,0.205-4.993-0.142c-2.875-0.632-5.652-1.828-8.322-3.046c-2.654-1.223-6.727-3.328-9.428-4.297
			c-1.474-0.531-3.027-0.907-4.6-0.923c-1.962-0.03-3.893,0.482-5.721,1.16c-5.489,2.062-13.261,6.694-18.505,9.463
			c-2.142,1.101-4.365,2.311-6.671,3.016c0,0-0.527,0.879-0.527,0.879c-0.85,1.43-2.065,2.409-3.361,3.336
			c-7.907,5.338-23.559,13.122-32.097,17.811c-11.108,5.676-25.17,13.302-36.517,18.31c-2.732,1.154-5.585,2.175-8.447,2.957
			c-5.467,1.496-11.218,2.27-16.851,2.837c-5.692,0.546-11.669,0.846-17.387,0.889C384.057,375.99,378.707,375.77,374.913,375.658z"
			/>
	</g>
</g>
</svg>
